<svg id="chart" viewport="200 157" viewBox="0 0 1200 630"   xmlns="http://www.w3.org/2000/svg" >      <path d="M 0,624.8066875237507 C 12.600000000000001,621.2339862169139 37.8,618.250781909692 63,606.9431809895667 C 88.2,595.6355800694414 100.80000000000001,578.5866529750655 126,568.2686829231244 C 151.2,557.9507128711833 163.8,567.54737060596 189,555.3533307298612 C 214.2,543.1592908537624 226.8,515.104341552402 252,507.2984835426302 C 277.2,499.4926255328583 289.8,514.5699094849602 315,516.3240406810019 C 340.2,518.0781718770435 352.8,525.0063306360692 378,516.0691395228384 C 403.2,507.13194840960773 415.8,499.48708647488024 441,471.63808511484825 C 466.2,443.78908375481626 478.8,379.99703580620377 504,376.8241327226786 C 529.2,373.6512296391534 541.8,457.63754208651244 567,455.7735696972223 C 592.2,453.90959730793213 604.8,389.16107978885327 630,367.5042707762278 C 655.2,345.8474617636024 667.8,348.982537954183 693,347.4895246340951 C 718.2,345.99651131400725 730.8,384.6509227480655 756,360.0392041757886 C 781.2,335.4274856035117 793.8,244.6733726644242 819,224.4309317727106 C 844.2,204.18849088099702 856.8,236.17694239158564 882,258.82699971722064 C 907.2,281.4770570428556 919.8,365.2152348190297 945,337.6812184008856 C 970.2,310.1472019827415 982.8,131.94832721467588 1008,121.15691762650012 C 1033.2,110.36550803832435 1045.8,281.85666899097356 1071,283.72417046000675 C 1096.2,285.59167192903993 1108.8,160.40333833157774 1134,130.49442497166615 C 1159.2,100.58551161175455 1184.4,133.4425679226923 1197,134.17960366044883,L 1200 630,L 0 630Z" fill="#444cf71a" />   <path d="M 0,624.8066875237507 C 12.600000000000001,621.2339862169139 37.8,618.250781909692 63,606.9431809895667 C 88.2,595.6355800694414 100.80000000000001,578.5866529750655 126,568.2686829231244 C 151.2,557.9507128711833 163.8,567.54737060596 189,555.3533307298612 C 214.2,543.1592908537624 226.8,515.104341552402 252,507.2984835426302 C 277.2,499.4926255328583 289.8,514.5699094849602 315,516.3240406810019 C 340.2,518.0781718770435 352.8,525.0063306360692 378,516.0691395228384 C 403.2,507.13194840960773 415.8,499.48708647488024 441,471.63808511484825 C 466.2,443.78908375481626 478.8,379.99703580620377 504,376.8241327226786 C 529.2,373.6512296391534 541.8,457.63754208651244 567,455.7735696972223 C 592.2,453.90959730793213 604.8,389.16107978885327 630,367.5042707762278 C 655.2,345.8474617636024 667.8,348.982537954183 693,347.4895246340951 C 718.2,345.99651131400725 730.8,384.6509227480655 756,360.0392041757886 C 781.2,335.4274856035117 793.8,244.6733726644242 819,224.4309317727106 C 844.2,204.18849088099702 856.8,236.17694239158564 882,258.82699971722064 C 907.2,281.4770570428556 919.8,365.2152348190297 945,337.6812184008856 C 970.2,310.1472019827415 982.8,131.94832721467588 1008,121.15691762650012 C 1033.2,110.36550803832435 1045.8,281.85666899097356 1071,283.72417046000675 C 1096.2,285.59167192903993 1108.8,160.40333833157774 1134,130.49442497166615 C 1159.2,100.58551161175455 1184.4,133.4425679226923 1197,134.17960366044883" fill="none" stroke="#444cf7" stroke-width="4px" />   <g>   		<circle cx="0" cy="624.8066875237507" r="8" fill="#444cf7" />,		<circle cx="63" cy="606.9431809895667" r="8" fill="#444cf7" />,		<circle cx="126" cy="568.2686829231244" r="8" fill="#444cf7" />,		<circle cx="189" cy="555.3533307298612" r="8" fill="#444cf7" />,		<circle cx="252" cy="507.2984835426302" r="8" fill="#444cf7" />,		<circle cx="315" cy="516.3240406810019" r="8" fill="#444cf7" />,		<circle cx="378" cy="516.0691395228384" r="8" fill="#444cf7" />,		<circle cx="441" cy="471.63808511484825" r="8" fill="#444cf7" />,		<circle cx="504" cy="376.8241327226786" r="8" fill="#444cf7" />,		<circle cx="567" cy="455.7735696972223" r="8" fill="#444cf7" />,		<circle cx="630" cy="367.5042707762278" r="8" fill="#444cf7" />,		<circle cx="693" cy="347.4895246340951" r="8" fill="#444cf7" />,		<circle cx="756" cy="360.0392041757886" r="8" fill="#444cf7" />,		<circle cx="819" cy="224.4309317727106" r="8" fill="#444cf7" />,		<circle cx="882" cy="258.82699971722064" r="8" fill="#444cf7" />,		<circle cx="945" cy="337.6812184008856" r="8" fill="#444cf7" />,		<circle cx="1008" cy="121.15691762650012" r="8" fill="#444cf7" />,		<circle cx="1071" cy="283.72417046000675" r="8" fill="#444cf7" />,		<circle cx="1134" cy="130.49442497166615" r="8" fill="#444cf7" />,		<circle cx="1197" cy="134.17960366044883" r="8" fill="#444cf7" />   </g> </svg>